<?xml version="1.0" encoding="UTF-8" standalone="no"?>
<!-- Created with Inkscape (http://www.inkscape.org/) -->

<svg
   width="119.846mm"
   height="82mm"
   viewBox="0 0 119.846 82"
   version="1.1"
   id="svg5"
   sodipodi:docname="logo.svg"
   inkscape:version="1.2.1 (9c6d41e410, 2022-07-14)"
   xmlns:inkscape="http://www.inkscape.org/namespaces/inkscape"
   xmlns:sodipodi="http://sodipodi.sourceforge.net/DTD/sodipodi-0.dtd"
   xmlns="http://www.w3.org/2000/svg"
   xmlns:svg="http://www.w3.org/2000/svg">
  <sodipodi:namedview
     id="namedview7"
     pagecolor="#505050"
     bordercolor="#ffffff"
     borderopacity="1"
     inkscape:showpageshadow="0"
     inkscape:pageopacity="0"
     inkscape:pagecheckerboard="1"
     inkscape:deskcolor="#505050"
     inkscape:document-units="mm"
     showgrid="false"
     showguides="false"
     inkscape:zoom="1.4142136"
     inkscape:cx="35.708893"
     inkscape:cy="156.2706"
     inkscape:window-width="2558"
     inkscape:window-height="1055"
     inkscape:window-x="0"
     inkscape:window-y="0"
     inkscape:window-maximized="1"
     inkscape:current-layer="layer1" />
  <defs
     id="defs2">
    <rect
       x="180.78958"
       y="504.17609"
       width="387.21579"
       height="110.34891"
       id="rect277" />
    <rect
       x="185.77681"
       y="435.54388"
       width="435.35165"
       height="235.28596"
       id="rect113" />
  </defs>
  <g
     inkscape:groupmode="layer"
     id="layer2"
     inkscape:label="Layer 2">
    <rect
       style="fill:#999999;stroke-width:0.181635"
       id="rect471"
       width="119.84617"
       height="82"
       x="0"
       y="0" />
  </g>
  <g
     inkscape:label="Layer 1"
     inkscape:groupmode="layer"
     id="layer1">
    <g
       aria-label="Nsc"
       transform="matrix(1.6658392,0,0,1.6658392,-310.31241,-732.98824)"
       id="text111"
       style="font-size:40px;line-height:1.25;white-space:pre;shape-inside:url(#rect113);display:inline">
      <path
         d="m 188.81734,471.93798 h 2.96 v -26 l 17.6,26 h 2.96 v -29.56 h -2.96 v 24.52 l -16.56,-24.52 h -4 z"
         style="font-family:'URW Gothic';-inkscape-font-specification:'URW Gothic'"
         id="path936" />
      <path
         d="m 216.09733,465.49798 c 0.04,4.24 2.8,6.96 7.04,6.96 3.96,0 6.68,-2.8 6.68,-6.8 0,-2.68 -1.24,-4.52 -3.8,-5.6 -3.36,-1.4 -3.52,-1.44 -4.12,-1.76 -1.36,-0.68 -2,-1.6 -2,-2.88 0,-1.76 1.4,-3.16 3.16,-3.16 1.92,0 3.04,1.12 3.2,3.2 h 3 c -0.12,-3.52 -2.64,-5.92 -6.16,-5.92 -3.56,0 -6.2,2.6 -6.2,6.16 0,1.6 0.56,2.92 1.64,3.92 0.92,0.84 0.96,0.88 4.04,2.12 3.4,1.4 4.24,2.2 4.24,4.2 0,2.2 -1.52,3.8 -3.68,3.8 -2.48,0 -3.96,-1.52 -4.12,-4.24 z"
         style="font-family:'URW Gothic';-inkscape-font-specification:'URW Gothic'"
         id="path938" />
      <path
         d="m 251.85735,465.49798 c -2.28,3.04 -4.36,4.24 -7.52,4.24 -4.88,0 -8.76,-3.84 -8.76,-8.72 0,-4.92 3.8,-8.76 8.68,-8.76 3.24,0 5.92,1.56 7.6,4.44 h 3.32 c -1.76,-4.4 -5.96,-7.16 -10.88,-7.16 -6.56,0 -11.72,5.04 -11.72,11.4 0,6.52 5.2,11.52 11.92,11.52 2.72,0 5.24,-0.84 7.28,-2.48 1.4,-1.12 2.24,-2.2 3.44,-4.48 z"
         style="font-family:'URW Gothic';-inkscape-font-specification:'URW Gothic'"
         id="path940" />
    </g>
    <g
       aria-label="New 
        simple chat"
       transform="matrix(0.51680763,0,0,0.51680763,-89.490862,-203.35698)"
       id="text275"
       style="font-size:30.1398px;line-height:0.55;white-space:pre;shape-inside:url(#rect277);display:inline;fill:#e6e6e6">
      <path
         d="m 181.30144,520.23653 v 0.9042 c 2.17006,-0.0603 2.89342,-0.0904 3.49622,-0.0904 0.57265,0 1.47685,0.0301 3.61677,0.0904 v -0.9042 l -1.32615,-0.0904 c -1.41657,-0.12056 -1.50699,-0.27126 -1.53713,-2.71258 v -13.98487 l 14.25613,17.72221 2.71258,0.48223 c 0,-0.12056 0,-0.1507 -0.0301,-0.36167 -0.0301,-0.3014 -0.0603,-0.6028 -0.0603,-0.7535 v -16.63717 c 0.0301,-2.44132 0.12056,-2.59202 1.53713,-2.71258 l 1.32615,-0.0904 v -0.90419 c -1.95909,0.0603 -2.92356,0.0904 -3.58664,0.0904 -0.66307,0 -1.47685,-0.0301 -3.52635,-0.0904 v 0.90419 l 1.32615,0.0904 c 1.41657,0.12056 1.50699,0.27126 1.53713,2.71258 v 14.19585 l -14.49725,-17.90304 -1.62755,0.0904 c -1.71796,-0.0301 -1.92894,-0.0301 -3.61677,-0.0904 v 0.90419 l 1.32615,0.0904 c 1.41657,0.12056 1.50699,0.27126 1.53713,2.71258 v 13.53277 c -0.0301,2.44132 -0.12056,2.59202 -1.53713,2.71258 z"
         style="font-family:P052;-inkscape-font-specification:P052"
         id="path909" />
      <path
         d="m 218.34325,518.94052 -0.39181,-0.3014 c -1.89881,1.14532 -2.62217,1.41657 -3.91818,1.41657 -1.95908,0 -3.58663,-0.87405 -4.43055,-2.3509 -0.57265,-0.96447 -0.78363,-1.83853 -0.84391,-3.58664 h 4.40041 c 2.17006,0 3.55649,-0.12056 5.4553,-0.42195 0.0301,-0.42196 0.0603,-0.69322 0.0603,-1.0549 0,-3.46607 -2.23034,-5.72656 -5.63614,-5.72656 -1.08503,0 -2.38105,0.39182 -3.61678,1.11517 -2.47146,1.44671 -3.46607,3.28524 -3.46607,6.44992 0,1.86867 0.45209,3.49622 1.26587,4.64153 1.20559,1.59741 3.19482,2.53174 5.48544,2.53174 1.14531,0 2.23035,-0.24112 3.46608,-0.78363 0.78363,-0.33154 1.44671,-0.72336 1.56727,-0.9042 z m -2.3509,-5.93754 c -1.53713,0.0603 -2.26049,0.0904 -3.37566,0.0904 -1.41657,0 -2.17006,-0.0301 -3.79761,-0.18084 0,-1.41657 0.12056,-2.07964 0.51237,-2.89342 0.63294,-1.29601 1.89881,-2.10979 3.34552,-2.10979 1.02475,0 1.80839,0.39182 2.35091,1.2056 0.66307,0.99461 0.87405,1.86866 0.96447,3.88803 z"
         style="font-family:P052;-inkscape-font-specification:P052"
         id="path911" />
      <path
         d="m 231.57461,506.91474 c -2.50161,5.84712 -2.86328,6.69104 -4.79223,11.00103 l -2.53174,-8.31859 c -0.0904,-0.27125 -0.12056,-0.51237 -0.12056,-0.75349 0,-0.4521 0.39181,-0.69322 1.14531,-0.72336 l 1.20559,-0.0603 v -0.84391 c -2.04951,0.0603 -2.89342,0.0904 -3.58664,0.0904 -0.69321,0 -1.53713,-0.0301 -3.58663,-0.0904 v 0.84391 l 0.84391,0.0603 c 0.84392,0.0603 1.23573,0.66308 1.98923,3.01398 l 3.07426,10.12698 h 1.41657 l 2.9537,-6.93216 c 0.27126,-0.60279 0.3014,-0.66307 1.56727,-3.37566 l 4.09901,10.30782 h 1.38643 c 0.27126,-0.78364 0.48224,-1.41657 0.69322,-1.98923 0.60279,-1.77825 1.26587,-3.61678 1.38643,-3.82776 l 2.0495,-4.7018 c 0.9042,-2.01937 1.26588,-2.53175 1.92895,-2.62217 l 0.78364,-0.0603 v -0.84391 c -1.68783,0.0603 -2.38105,0.0904 -2.9537,0.0904 -0.57266,0 -1.26587,-0.0301 -2.9537,-0.0904 v 0.84391 l 1.02475,0.0603 c 0.75349,0.0301 1.17545,0.39182 1.17545,0.93434 0,0.33153 -0.0603,0.69321 -0.21098,1.08503 l -1.50699,4.21957 c -0.24112,0.66308 -0.51237,1.35629 -1.44671,3.73734 l -3.46607,-8.74055 c -0.42196,-1.05489 -0.63294,-1.62754 -0.87406,-2.44132 z"
         style="font-family:P052;-inkscape-font-specification:P052"
         id="path913" />
      <path
         d="m 242.30439,535.0917 c 0,2.07964 -0.0904,2.98384 -0.33154,4.18943 1.59741,0.51237 2.74273,0.72335 4.12916,0.72335 3.94831,0 6.75131,-2.07964 6.75131,-5.06348 0,-0.96448 -0.27126,-1.62755 -0.84391,-2.23035 -0.78364,-0.75349 -1.74811,-1.11517 -4.43055,-1.62755 -2.47147,-0.48223 -3.28524,-1.08503 -3.28524,-2.47146 0,-1.50699 1.02475,-2.35091 2.89342,-2.35091 2.04951,0 3.5565,1.0549 3.5565,2.47147 v 0.69321 h 0.84391 c 0.0301,-1.74811 0.0603,-2.47146 0.1507,-3.40579 -1.62755,-0.54252 -2.6523,-0.7535 -3.91817,-0.7535 -3.49622,0 -5.63615,1.65769 -5.63615,4.37027 0,1.47685 0.66308,2.44133 2.04951,3.1044 0.81377,0.36168 2.41118,0.84392 4.46069,1.29601 1.35629,0.3014 1.92895,0.9042 1.92895,2.07965 0,1.62755 -1.50699,2.77286 -3.64692,2.77286 -2.2002,0 -3.76747,-1.05489 -3.76747,-2.56188 v -1.23573 z"
         style="font-family:P052;-inkscape-font-specification:P052"
         id="path915" />
      <path
         d="m 259.51421,525.38668 -0.27126,-0.12056 c -1.47685,0.63294 -3.13453,1.05489 -4.7018,1.23573 v 0.84392 h 1.11517 c 1.23573,0.0301 1.29601,0.1507 1.32615,2.2002 v 6.78146 c 0,1.95908 -0.0904,2.07964 -1.11517,2.17006 l -1.38643,0.0904 v 0.9042 c 2.10978,-0.0603 2.98384,-0.0904 3.76747,-0.0904 0.78364,0 1.65769,0.0301 3.76748,0.0904 v -0.9042 l -1.38643,-0.0904 c -1.0549,-0.12056 -1.08504,-0.18084 -1.11518,-2.17006 z m -1.38643,-6.69104 c -0.90419,0 -1.68783,0.78364 -1.68783,1.68783 0,0.87406 0.78364,1.65769 1.65769,1.65769 0.87406,0 1.68783,-0.78363 1.68783,-1.65769 0,-0.84391 -0.81377,-1.68783 -1.65769,-1.68783 z"
         style="font-family:P052;-inkscape-font-specification:P052"
         id="path917" />
      <path
         d="m 263.10086,538.58791 v 0.9042 c 2.10978,-0.0603 2.9537,-0.0904 3.82775,-0.0904 0.93434,0 1.74811,0.0301 3.58664,0.0904 v -0.9042 l -1.26587,-0.0904 c -1.0549,-0.0904 -1.11517,-0.21098 -1.11517,-2.17006 v -6.38964 c 0,-1.35629 1.98922,-2.83314 3.79761,-2.83314 1.62755,0 2.74272,1.53713 2.74272,3.82775 v 5.39503 c 0,1.95908 -0.0904,2.07964 -1.11517,2.17006 l -1.38643,0.0904 v 0.9042 c 2.10978,-0.0603 2.98384,-0.0904 3.76747,-0.0904 0.78364,0 1.62755,0.0301 3.76748,0.0904 v -0.9042 l -1.38643,-0.0904 c -1.0549,-0.12056 -1.08504,-0.18084 -1.11518,-2.17006 v -6.38964 c 0,-1.35629 1.98923,-2.83314 3.79762,-2.83314 1.62755,0 2.74272,1.53713 2.74272,3.82775 v 8.55971 c 1.35629,-0.0603 1.86867,-0.0904 2.38105,-0.0904 0.45209,0 1.02475,0.0301 2.68244,0.0904 v -0.9042 l -1.41657,-0.0904 c -1.0549,-0.12056 -1.08504,-0.18084 -1.11518,-2.17006 v -6.2088 c 0,-2.98384 -1.7481,-4.85251 -4.52097,-4.85251 -1.08503,0 -1.92894,0.24112 -2.47146,0.7535 l -2.29062,2.0495 c -0.96448,-2.01936 -2.17007,-2.803 -4.27986,-2.803 -1.11517,0 -1.95908,0.24112 -2.5016,0.7535 l -2.07964,1.92894 v -2.56188 l -0.27126,-0.12056 c -1.47685,0.63294 -3.13454,1.05489 -4.70181,1.23573 v 0.84392 h 1.11517 c 1.23573,0.0301 1.29601,0.1507 1.32615,2.2002 v 6.78146 c -0.0301,1.95908 -0.0603,2.07964 -1.11517,2.17006 z"
         style="font-family:P052;-inkscape-font-specification:P052"
         id="path919" />
      <path
         d="m 288.84023,546.96678 v 0.90419 c 2.07965,-0.0603 2.9537,-0.0904 3.76748,-0.0904 0.81377,0 1.68783,0.0301 3.76747,0.0904 v -0.90419 l -1.38643,-0.0904 c -1.05489,-0.12056 -1.08503,-0.18084 -1.11517,-2.17007 v -5.69642 c 0.93433,0.54252 1.86867,0.75349 3.22496,0.75349 0.90419,0 1.65769,-0.18083 2.13992,-0.48223 l 3.43594,-2.23035 c 1.20559,-0.78363 2.62216,-3.88803 2.62216,-5.81698 0,-3.34552 -2.77286,-5.96768 -6.26908,-5.96768 -1.11517,0 -2.2002,0.3014 -2.68244,0.7535 l -2.47146,2.26048 v -2.89342 l -0.27126,-0.12056 c -1.47685,0.63294 -3.13454,1.05489 -4.70181,1.23573 v 0.84392 h 1.11517 c 1.23574,0.0301 1.29602,0.1507 1.32616,2.2002 v 15.16032 c -0.0301,1.98923 -0.0603,2.04951 -1.11518,2.17007 z m 5.03335,-16.78787 c 0,-0.42196 0.1507,-0.7535 0.54251,-1.26587 0.87406,-1.11518 2.13993,-1.68783 3.61678,-1.68783 2.83314,0 4.64153,1.98922 4.64153,5.12376 0,3.37566 -2.01937,5.87726 -4.73195,5.87726 -1.65769,0 -2.89342,-0.54251 -4.06887,-1.77824 z"
         style="font-family:P052;-inkscape-font-specification:P052"
         id="path921" />
      <path
         d="m 307.34606,538.58791 v 0.9042 c 2.10979,-0.0603 2.98384,-0.0904 3.76748,-0.0904 0.78363,0 1.65769,0.0301 3.76747,0.0904 v -0.9042 l -1.38643,-0.0904 c -1.05489,-0.12056 -1.08503,-0.18084 -1.11517,-2.17006 v -18.56612 l -0.27126,-0.24112 c -1.32615,0.51238 -2.32076,0.7535 -4.70181,1.11517 v 0.84392 h 1.68783 c 0.54252,0 0.7535,0.33154 0.7535,1.23573 v 15.61242 c -0.0301,1.95908 -0.0603,2.07964 -1.11518,2.17006 z"
         style="font-family:P052;-inkscape-font-specification:P052"
         id="path923" />
      <path
         d="m 328.65492,537.2919 -0.39182,-0.3014 c -1.89881,1.14531 -2.62216,1.41657 -3.91817,1.41657 -1.95909,0 -3.58664,-0.87405 -4.43055,-2.3509 -0.57266,-0.96447 -0.78364,-1.83853 -0.84392,-3.58664 h 4.40041 c 2.17007,0 3.5565,-0.12056 5.45531,-0.42195 0.0301,-0.42196 0.0603,-0.69322 0.0603,-1.0549 0,-3.46607 -2.23035,-5.72656 -5.63615,-5.72656 -1.08503,0 -2.38104,0.39182 -3.61677,1.11517 -2.47147,1.44671 -3.46608,3.28524 -3.46608,6.44992 0,1.86867 0.4521,3.49622 1.26587,4.64153 1.20559,1.59741 3.19482,2.53174 5.48545,2.53174 1.14531,0 2.23034,-0.24112 3.46607,-0.78363 0.78364,-0.33154 1.44671,-0.72336 1.56727,-0.9042 z m -2.35091,-5.93754 c -1.53713,0.0603 -2.26048,0.0904 -3.37565,0.0904 -1.41657,0 -2.17007,-0.0301 -3.79762,-0.18084 0,-1.41657 0.12056,-2.07965 0.51238,-2.89342 0.63293,-1.29601 1.89881,-2.10979 3.34552,-2.10979 1.02475,0 1.80838,0.39182 2.3509,1.2056 0.66308,0.99461 0.87405,1.86866 0.96447,3.88803 z"
         style="font-family:P052;-inkscape-font-specification:P052"
         id="path925" />
      <path
         d="m 349.48151,530.02821 c 0,-1.38643 0.1507,-2.62216 0.42196,-3.7072 -1.20559,-0.72335 -2.26048,-1.05489 -3.49622,-1.05489 -1.47685,0 -3.13453,0.57266 -4.94292,1.71797 -2.10979,1.32615 -3.22496,3.4058 -3.22496,6.08824 0,4.06887 2.83314,6.93215 6.90201,6.93215 1.56727,0 3.82776,-0.57265 4.12916,-1.02475 l 0.63293,-0.96447 -0.3014,-0.4521 c -1.14531,0.60279 -2.07964,0.87405 -3.16468,0.87405 -3.34551,0 -5.54572,-2.59202 -5.54572,-6.57047 0,-3.22496 1.50699,-5.03335 4.21957,-5.03335 1.35629,0 2.77286,0.57266 3.31538,1.35629 l 0.21098,1.83853 z"
         style="font-family:P052;-inkscape-font-specification:P052"
         id="path927" />
      <path
         d="m 351.19952,538.58791 v 0.9042 c 1.92894,-0.0603 2.77286,-0.0904 3.73733,-0.0904 0.96447,0 1.80839,0.0301 3.73734,0.0904 v -0.9042 l -1.3563,-0.0904 c -1.05489,-0.0904 -1.11517,-0.21098 -1.11517,-2.17006 v -6.38964 c 0,-1.35629 1.98923,-2.83314 3.82776,-2.83314 2.01936,0 3.34551,1.50699 3.34551,3.82775 v 8.55971 c 1.38644,-0.0603 1.86867,-0.0904 2.38105,-0.0904 0.4521,0 0.99461,0.0301 2.5016,0.0904 v -0.9042 l -1.23573,-0.0904 c -1.05489,-0.0904 -1.08503,-0.21098 -1.11517,-2.17006 v -5.81698 c 0,-3.52636 -1.65769,-5.24433 -5.03335,-5.24433 -1.11517,0 -1.74811,0.18084 -2.38104,0.7535 l -2.29063,1.98922 v -10.24753 l -0.27126,-0.24112 c -1.32615,0.51238 -2.32076,0.7535 -4.7018,1.11517 v 0.84392 h 1.68782 c 0.54252,0 0.7535,0.33154 0.7535,1.23573 v 15.61242 c -0.0301,1.95908 -0.0603,2.07964 -1.11517,2.17006 z"
         style="font-family:P052;-inkscape-font-specification:P052"
         id="path929" />
      <path
         d="m 378.32535,536.93022 -0.1507,2.56189 c 1.47685,-0.0603 1.92895,-0.0904 2.35091,-0.0904 0.39182,0 0.57266,0 1.59741,0.0603 l 0.63293,0.0301 v -0.9042 l -1.17545,-0.0603 c -0.78363,-0.0904 -0.81377,-0.18084 -0.84391,-1.74811 v -5.51558 c 0,-4.40041 -1.26587,-5.99782 -4.76209,-5.99782 -1.32615,0 -2.5016,0.33154 -3.64692,1.02475 l -1.59741,0.96448 v 1.95908 l 0.78364,0.21098 0.39182,-0.93433 c 0.63293,-1.41657 0.93433,-1.62755 2.32076,-1.62755 2.83314,0 4.00859,1.11517 4.09901,3.85789 l -2.98384,0.54252 c -4.09901,0.7535 -5.81698,2.17007 -5.81698,4.82237 0,2.32076 1.38643,3.67705 3.79762,3.67705 0.57265,0 1.05489,-0.0904 1.26587,-0.24111 z m 0,-1.26587 c -0.87405,1.23573 -2.77286,2.38105 -3.94831,2.38105 -1.23573,0 -2.26049,-1.08504 -2.26049,-2.41119 0,-1.11517 0.6028,-2.17006 1.47686,-2.74272 0.78363,-0.4521 2.44132,-0.87405 4.73194,-1.20559 z"
         style="font-family:P052;-inkscape-font-specification:P052"
         id="path931" />
      <path
         d="m 385.58902,527.88828 v 8.68027 c 0,2.23034 0.99461,3.19481 3.31537,3.19481 0.69322,0 1.41657,-0.1507 1.59741,-0.36167 l 1.44671,-1.59741 -0.39181,-0.51238 c -0.78364,0.4521 -1.17546,0.57266 -1.77825,0.57266 -1.17545,0 -1.65769,-0.6028 -1.65769,-2.07965 v -7.89663 h 3.85789 l 0.27126,-1.62755 -4.12915,0.18084 v -1.14531 c 0,-1.23573 0.0904,-2.53174 0.33154,-4.27985 l -0.36168,-0.33154 c -0.7535,0.4521 -1.62755,0.84392 -2.56188,1.14531 0.0904,0.84392 0.12055,1.44671 0.12055,2.38105 v 2.10978 l -2.3509,1.0549 v 0.63293 z"
         style="font-family:P052;-inkscape-font-specification:P052"
         id="path933" />
    </g>
  </g>
</svg>
